<svg width="24" height="21" viewBox="0 0 24 21" fill="none" xmlns="http://www.w3.org/2000/svg">
<path d="M0.293232 1.49545C0.200266 1.4141 0.126522 1.31753 0.0762087 1.21125C0.0258958 1.10497 9.79557e-10 0.991053 0 0.876013C-9.79557e-10 0.760973 0.0258958 0.64706 0.0762087 0.540777C0.126522 0.434495 0.200266 0.337923 0.293232 0.256578C0.386198 0.175233 0.496565 0.110706 0.618031 0.0666826C0.739497 0.0226588 0.869684 -8.57113e-10 1.00116 0C1.13263 8.57112e-10 1.26282 0.0226588 1.38428 0.0666826C1.50575 0.110706 1.61612 0.175233 1.70908 0.256578L12 9.26288L22.2909 0.256578C22.3839 0.175233 22.4942 0.110706 22.6157 0.0666826C22.7372 0.0226588 22.8674 0 22.9988 0C23.1303 0 23.2605 0.0226588 23.382 0.0666826C23.5034 0.110706 23.6138 0.175233 23.7068 0.256578C23.7997 0.337923 23.8735 0.434495 23.9238 0.540777C23.9741 0.64706 24 0.760973 24 0.876013C24 0.991053 23.9741 1.10497 23.9238 1.21125C23.8735 1.31753 23.7997 1.4141 23.7068 1.49545L13.4139 10.5L23.7068 19.5046C23.7997 19.5859 23.8735 19.6825 23.9238 19.7887C23.9741 19.895 24 20.0089 24 20.124C24 20.239 23.9741 20.3529 23.9238 20.4592C23.8735 20.5655 23.7997 20.6621 23.7068 20.7434C23.6138 20.8248 23.5034 20.8893 23.382 20.9333C23.2605 20.9773 23.1303 21 22.9988 21C22.8674 21 22.7372 20.9773 22.6157 20.9333C22.4942 20.8893 22.3839 20.8248 22.2909 20.7434L12 11.7371L1.70908 20.7434C1.61612 20.8248 1.50575 20.8893 1.38428 20.9333C1.26282 20.9773 1.13263 21 1.00116 21C0.869684 21 0.739497 20.9773 0.618031 20.9333C0.496565 20.8893 0.386198 20.8248 0.293232 20.7434C0.200266 20.6621 0.126522 20.5655 0.0762087 20.4592C0.0258958 20.3529 0 20.239 0 20.124C0 20.0089 0.0258958 19.895 0.0762087 19.7887C0.126522 19.6825 0.200266 19.5859 0.293232 19.5046L10.5861 10.5L0.293232 1.49545Z" fill="#EBDFD4"/>
</svg>
