<svg width="24" height="20" viewBox="0 0 24 20" fill="none" xmlns="http://www.w3.org/2000/svg">
<path fill-rule="evenodd" clip-rule="evenodd" d="M0 18.0625C0 17.7807 0.111942 17.5105 0.311199 17.3112C0.510457 17.1119 0.780707 17 1.0625 17H22.3125C22.5943 17 22.8645 17.1119 23.0638 17.3112C23.2631 17.5105 23.375 17.7807 23.375 18.0625C23.375 18.3443 23.2631 18.6145 23.0638 18.8138C22.8645 19.0131 22.5943 19.125 22.3125 19.125H1.0625C0.780707 19.125 0.510457 19.0131 0.311199 18.8138C0.111942 18.6145 0 18.3443 0 18.0625ZM0 9.5625C0 9.28071 0.111942 9.01046 0.311199 8.8112C0.510457 8.61194 0.780707 8.5 1.0625 8.5H22.3125C22.5943 8.5 22.8645 8.61194 23.0638 8.8112C23.2631 9.01046 23.375 9.28071 23.375 9.5625C23.375 9.84429 23.2631 10.1145 23.0638 10.3138C22.8645 10.5131 22.5943 10.625 22.3125 10.625H1.0625C0.780707 10.625 0.510457 10.5131 0.311199 10.3138C0.111942 10.1145 0 9.84429 0 9.5625ZM0 1.0625C0 0.780707 0.111942 0.510457 0.311199 0.311199C0.510457 0.111942 0.780707 0 1.0625 0H22.3125C22.5943 0 22.8645 0.111942 23.0638 0.311199C23.2631 0.510457 23.375 0.780707 23.375 1.0625C23.375 1.34429 23.2631 1.61454 23.0638 1.8138C22.8645 2.01306 22.5943 2.125 22.3125 2.125H1.0625C0.780707 2.125 0.510457 2.01306 0.311199 1.8138C0.111942 1.61454 0 1.34429 0 1.0625Z" fill="#EBDFD4"/>
</svg>
